<?xml version="1.0" encoding="utf-8"?>
<!-- Generator: Adobe Illustrator 24.2.1, SVG Export Plug-In . SVG Version: 6.00 Build 0)  -->
<svg version="1.1" baseProfile="basic" id="Layer_1"
	 xmlns="http://www.w3.org/2000/svg" xmlns:xlink="http://www.w3.org/1999/xlink" x="0px" y="0px" width="1366px" height="768px"
	 viewBox="0 0 1366 768" xml:space="preserve">
<g>
	<path d="M722.4,588.7c-8.5,0-17-0.8-25.4-2.5c-14.6-2.8-28.9-8-42.4-15.2c-36.1-19.3-62.7-51.5-75.1-90.9
		c-12.3-39.2-9.2-81,8.9-117.9c8.9-18.3,17.8-32.1,21.2-37.2c2-3,3.6-5.9,4.9-8.6c17.1-37.7-17.4-63.6-49.4-78.6
		c-18.2-8.5-38.4-13.4-60-14.4c-34-1.6-45.5-16.9-49.2-29.4c-3.6-12.5-0.6-26.1,8-36.4c30.5-36.5,71.5-47.9,100.6-51
		c20.9-2.2,37-18.9,38.3-39.7c0.5-8.8,1.4-17.1,2-22.5c0.3-3,2-5.6,4.6-7.2c2.6-1.6,5.7-2,8.6-1c27.9,9.7,64.9,29,82.8,65.6
		c2,4.1,5.9,6.6,10.5,6.6c0,0,0,0,0.1,0c4.6,0,8.6-2.6,10.6-6.7c11.2-23.5,26-50.7,33.8-64.8c1.5-2.6,4.3-4.1,7.3-3.6
		c3,0.4,5.3,2.6,6,5.6c5.2,23.8,7.5,77.6,8.5,118.6c0.1,5.3,2.7,9.9,7.1,12.7c4.5,2.9,10.1,3.3,15,1.2c2-0.9,4.1-1.5,6.2-2
		c6.7-1.4,13.5,0,19.2,3.9c5.7,3.9,9.6,10.1,10.6,17c5.4,34.9,2.8,101.4-0.3,151.1c-2,32.1-21.3,60.2-50.2,73.4
		c-15.2,6.9-32.4,13.2-51.1,18.5c-24.8,7.1-42.6,24.7-47.5,47.1c-4.4,19.9,2.5,39.5,18.8,53.9c7.6,2.5,15.6,4.4,23.3,5.3
		c2.6,0.3,5.1,0.2,7.6-0.3c76.8-15.7,89.9-12.1,92.5-6.6c2.8,5.8-7.4,14.2-18.1,23.1l-1.7,1.4C784,577.8,753.5,588.7,722.4,588.7z
		 M614.5,38.7c-1.3,0-2.6,0.4-3.7,1.1c-1.8,1.1-2.9,2.9-3.2,5c-0.6,5.4-1.5,13.6-2,22.4c-1.4,22.2-18.6,40.1-40.9,42.5
		c-28.5,3.1-68.7,14.2-98.6,49.9c-8,9.6-10.8,22.1-7.4,33.6c4.9,16.8,20.5,26,46.4,27.2c22,1,42.6,6,61.1,14.7
		c60.2,28.3,60.9,60.5,50.9,82.5c-1.3,2.9-3,5.9-5.1,9.1c-3.4,5.1-12.1,18.8-21,36.9c-17.7,36.2-20.8,77.3-8.7,115.7
		c12.1,38.6,38.3,70.2,73.7,89.1l0,0c13.3,7.1,27.2,12.1,41.6,14.9c38.6,7.5,78.5-2.8,109.4-28.5l1.7-1.4
		c8.1-6.7,19.1-15.8,17.3-19.5c-0.7-1.5-4.3-3.8-20.3-2.7c-14.8,0.9-38,4.6-68.9,11c-2.8,0.6-5.7,0.7-8.5,0.3
		c-5.8-0.7-11.7-1.9-17.4-3.5l0.4,0.4l-7.2-2.5l0,0l0.3-1.2l-0.8,1c-17.4-15.1-24.7-35.9-20-57c5.1-23.1,24.1-42,49.6-49.3
		c18.5-5.3,35.6-11.5,50.7-18.4c28-12.7,46.5-39.9,48.5-70.9c3.1-49.5,5.7-115.8,0.3-150.4c-0.9-6-4.4-11.5-9.4-15
		c-5-3.4-11-4.6-16.8-3.4c-1.9,0.4-3.8,1-5.7,1.8c-5.9,2.5-12.5,2-17.8-1.5c-5.2-3.4-8.3-8.9-8.5-15.2c-1-40.8-3.3-94.4-8.4-118
		c-0.5-2.1-2.1-3-3.5-3.2c-1.4-0.2-3.2,0.2-4.3,2.1c-7.8,14.1-22.5,41.3-33.7,64.7c-2.5,5.2-7.5,8.4-13.2,8.4c0,0-0.1,0-0.1,0
		c-5.7,0-10.7-3.2-13.2-8.2c-17.5-35.7-53.7-54.5-81.1-64.1C616.1,38.9,615.3,38.7,614.5,38.7z"/>
</g>
<g>
	<path d="M682.4,554.5c-0.2-0.2-20.2-20.8-33.3-51.2c-12.1-28.2-20.7-70.8,7.3-113.7c12.6-19.3,21.3-39.6,25.9-60.6
		c6.5-29.7,9.7-56.9,9.5-80.8c-0.3-32.8-7-58.2-20.1-75.6c-12.7-16.9-31.7-26.2-56.3-27.7l0.2-3c25.5,1.6,45.2,11.3,58.5,28.8
		c13.5,17.9,20.5,43.9,20.7,77.3c0.2,24.1-3,51.5-9.6,81.5c-4.7,21.3-13.5,42-26.3,61.6c-12,18.5-18.2,38.4-18.3,59.2
		c-0.1,16.7,3.7,34.1,11.2,51.6c12.9,29.9,32.5,50.2,32.7,50.4L682.4,554.5z"/>
</g>
</svg>
