<?xml version="1.0" encoding="utf-8"?>
<!-- Generator: Adobe Illustrator 24.2.1, SVG Export Plug-In . SVG Version: 6.00 Build 0)  -->
<svg version="1.1" baseProfile="basic" id="Layer_1"
	 xmlns="http://www.w3.org/2000/svg" xmlns:xlink="http://www.w3.org/1999/xlink" x="0px" y="0px" width="1366px" height="768px"
	 viewBox="0 0 1366 768" xml:space="preserve">
<g>
	<path fill="#F6941F" d="M896.7,550.9c-14.2,35.9-24.4,72.3-45.2,106.3c-2.1,3.4-5.2,6.4-9.4,11.5c-12.7-24.6-21.7-49-49.8-68.3
		c-10.1,34.2-11.2,68.1-35.4,101.8c-19.9-35.9-30.9-72.2-71.6-98c-11.2,25.7-18.9,50.6-25.5,75.8c-1.3,5-1.9,9.9-10.1,11.1
		c-7.8,1.1-9.4-4.3-12.5-7.5c-31.7-33-59.5-67.9-86.9-103.3c-25.3,20.1-23.7,48.3-42.1,74.5c-32.4-47.2-53.2-91.2-64.6-139.7
		c-11.1,24-11.1,48.3-25.8,73.5C349.6,463.6,315.4,336.8,303.6,206c19.8,48.3,27.9,99.5,66.2,143c-3-26-6.1-52-9.1-78.1
		c29,58.4,52.7,118.3,111.4,169.5c6.3-22.1,3.6-41.5,5.8-64.7c46.2,46.5,70.1,99.5,123.9,139.5c16-24.7,17-50.4,25.7-78.2
		c33.6,35,53.8,73.4,86.2,108.8c25.3-40.7,43.2-82.2,81-119.5c13,31.3,20.6,60.8,49.4,86.9c30.3-44.6,59.4-87.4,89.6-131.8
		c6.6,13.8,10.9,27,23.5,40.3c47.4-73.3,78.2-148.2,95.1-226.9c28.7,33.2-8.8,298.3-52.5,361.1c-2.3-23.5-3.8-47-9.4-73.7
		c-10.3,14.6-10.7,27.9-14.7,40.3c-10,31-19.7,62.1-38,91.2c-2.8,4.5-4,11.7-13.8,10.5c-9.7-1.2-7.8-8.5-8.8-13.3
		C911.1,590.8,907.1,570.6,896.7,550.9z"/>
	<path fill="#F6941F" d="M427.7,20c21.8,36.9,45.1,71.8,71.8,105.3c4.7,5.9,3.7,11.5,2.1,17.2c-13.6,49.7-16.3,99.8-9.7,150.8
		c10.9-38,16.7-77.6,61.9-105.7c23.8,24,49.7,46,74.2,68.7c12.9,12,13.3,27.4,6,41.9c-3.8,7.4-6,14.2,2.2,20.9
		c-9.6,3.4-20.2,2.4-25.5,9.7c-1.3,1.8-6.5,3.2-9.6,2.9c-35.4-3.1-72.2,4.8-106.1-11c-34.6-16.2-59.9-37.7-76.8-64.8
		c-27.1-43.6-44.5-89.8-28.6-136.9c8.5-25.2,10.6-50.3,15.6-75.4C407.1,33.8,411.6,24.8,427.7,20z"/>
	<path fill="#F6941F" d="M836,188.1c42.4,27.3,50.5,64.5,58.5,105c11.4-29.2,7.2-56.3,4.9-83c-2.1-23.7-8-47.1-12.8-70.6
		c-0.9-4.4-2.1-8.1,1.3-12.3c27.5-34.2,51.4-69.9,72.9-106.4c11.7,1.2,16.3,6.9,19.2,12.9c2.7,5.5,4.7,11.5,5.1,17.3
		c1.6,21.7,2.9,42.6,13.7,64.1c12.6,25.2,6,53.5-1.2,80.2c-10.9,40.4-30,78-71.2,107.2c-25.6,18.2-56.5,32.4-91.6,28.7
		c-21.3-2.2-47.1,9.5-65.4-8.2c-3.6-3.4-9.9,4.2-18.2,0.5c9.3-11.5,3.6-23.5,1.1-35.9c-3-15.1,3.3-28.2,17.7-40.1
		C792.5,228.7,813.3,208.7,836,188.1z"/>
</g>
</svg>
