<?xml version="1.0" encoding="utf-8"?>
<!-- Generator: Adobe Illustrator 24.2.1, SVG Export Plug-In . SVG Version: 6.00 Build 0)  -->
<svg version="1.1" baseProfile="basic" id="Layer_1"
	 xmlns="http://www.w3.org/2000/svg" xmlns:xlink="http://www.w3.org/1999/xlink" x="0px" y="0px" width="1366px" height="768px"
	 viewBox="0 0 1366 768" xml:space="preserve">
<g id="k1rQxu_1_">
	<g>
		<path d="M706,163c-0.1-1.6,1-3.4,2-4.8c2.7-4.1,1.7-7.4-2.7-9.7c-1.7-0.9-3.5-2.5-4.2-4.2c-4.7-10.7-9.1-21.5-13.4-32.3
			c-0.5-1.2-0.6-2.6-0.8-3.9c-2.7-3.5-4-8.1-5.7-12.4c-0.9-1.7-1.7-3.5-2.5-5.2c-0.4-0.7-0.9-1.5-1.4-2c-0.1-0.1-0.1-0.1-0.2-0.2
			c-0.3,0.3-0.7,0.7-0.9,0.9c-0.9,1.2-1.5,2.7-2.2,4c-1.3,2.6-2,5.5-3.2,8.1c-0.6,1.3-1.2,2.4-2,3.4c0.2,0.2,0.5,0.4,0.7,0.6
			c-5.7,13.8-11.3,27.7-17.1,41.5c-0.3,0.8-1.2,1.6-2,2.1c-6.1,3.8-6.2,3.9-3.6,11c0.3,0.9,0.5,1.9,0.5,2.9c0.3,8.5,0.7,17,0.7,25.5
			c0.2,50.5,0.3,101,0.3,151.5c0,3.7,0.9,6.6,3.3,9.5c7,8.3,13.5,17,20.5,25.2c2.6,3.1,3.4,6.2,3.4,10c-0.1,35.3-0.1,70.7,0,106
			c0.1,54.8,0.3,109.6,0.6,164.5c0,1.6,0,2.9-0.3,3.9c1,0,1.9,0,2.8,0.1c0-1.1,0-2.2,0-3.3c-0.1-75.1-0.1-150.3-0.3-225.4
			c0-15.2-0.5-30.3-0.4-45.5c0-2.7,1.1-5.9,2.7-8.1c7.6-9.9,15.7-19.4,23.4-29.2c1.3-1.7,2.3-4.2,2.3-6.3c0.1-50.7,0-101.3,0-152
			c0-3-1.4-6.3,1.8-8.7c0.4-0.3,0.5-1.9,0.1-2.3C704,173.7,706.3,168.1,706,163z M654.8,146.9c6.5-16.1,13.1-32.2,20.1-49.4v88.9
			l-0.9,0.4c-4.2-6.5-8.5-13.1-12.8-19.6c-0.9-1.3-2.2-2.4-3.1-3.8c-0.9-1.3-2.3-3.3-1.9-4.3c1.6-3.6,1.1-6.3-1.5-9.1
			C654.3,149.5,654.5,147.9,654.8,146.9z M647.4,155.3c0.5-1.6,2.5-3.3,4.2-3.8c0.7-0.2,3.3,2.4,3.2,3.7c-0.1,1.6-2,3.1-4,5.8
			C649,158.2,647,156.4,647.4,155.3z M650,163.6c0.3-1,3.9-1.9,4.1-1.6c4.8,7.1,9.3,14.3,13.9,21.5c0,0.3,0,0.6-0.2,0.8
			c-1.2,0.1-2.3,0.1-3.5,0.2l-1.7-0.9l-0.9-0.8C651,181.2,646.4,173.8,650,163.6z M674.4,374.2c-4.5-5.6-8.6-11.5-13.6-16.6
			c-8.4-8.4-10.5-18-10.4-29.7c0.6-41.1,0.1-82.2,0-123.4c0-5.5-0.3-11-0.3-16.4c0-1.9,0.5-3.8,0.8-6.2c8.8,2.4,9.4,2.7,10,10.3
			c1.6,18.4,2.8,36.8,4.3,55.2c1.5,18.9,3.2,37.8,4.7,56.7c1.2,14.4,2.1,28.8,3.2,43.3C673.8,356.2,674.6,365,674.4,374.2z
			 M675,344.1c-4.1-52.1-8.2-104.2-12.3-157.2c4.1,1.8,7.6,2.8,10.2,4.9c1.5,1.2,2.3,4.2,2.3,6.4c0.2,44.3,0.2,88.5,0.2,132.8
			c0,4.3,0,8.6,0,13C675.2,344,675.1,344,675,344.1z M703.9,150.9c1.1-0.2,2.5,1.6,5,3.3c-2.6,1.8-4.3,3.8-5.4,3.5
			c-1.4-0.3-2.5-2.4-3.7-3.8C701.1,152.9,702.4,151.2,703.9,150.9z M691.9,184.2c-3.3,1.6-6.6,3.1-9.9,4.6c-0.3-0.3-0.6-0.6-0.8-0.9
			c3.4-4.4,7-8.7,10.3-13.3c2.7-3.7,4.8-7.8,7.4-11.6c0.7-1.1,2.2-1.6,3.3-2.4c0.6,1.4,1.8,2.7,1.7,4.1
			C703.8,180.6,706.5,177,691.9,184.2z M678.1,94.8c7.1,17.2,14.5,33.4,20.3,50.1c1.7,4.9,0.7,12.2-1.8,16.9
			c-5,9.4-12,17.8-18.5,27.2V94.8z M677.8,360.9c0-11.7,0-23.3,0-35c0-41.8,0.1-83.6-0.1-125.4c0-5.5,1.4-8.8,6.7-10.4
			c2.1-0.6,4.1-1.9,6.9-3.1c-4.5,58.6-8.8,116.2-13.2,173.9C677.9,360.9,677.8,360.9,677.8,360.9z M704,339.9c0,2.7-1.2,5.8-2.9,8
			c-7,9.1-14.3,18-22.2,27.8c2.3-28.9,4.5-56.7,6.6-84.6c1.8-23.9,3.5-47.8,5.3-71.7c0.7-9,1.3-17.9,2.1-26.9
			c0.7-7.5,1.6-8.5,11.2-11.1c0,2.1,0,4,0,5.9C704.1,238.3,704.2,289.1,704,339.9z"/>
		<path d="M661.6,182.7c0.3,0.3,0.6,0.5,0.9,0.8C662.2,183.2,661.9,182.9,661.6,182.7z"/>
	</g>
</g>
</svg>
